# xmcd CD database file
# Copyright (C) 1997 Ti Kan
# 
# Track frame offsets:
#     182
#     19767
#     43457
#     61507
#     78932
#     96505
#     105382
#     127625
#     148705
#     165047
#     182230
# 
# Disc length: 2693 seconds
# 
# Revision: 1
# Processed by: cddbd v1.4b41PL1 Copyright (c) Steve Scherf et al.
# Submitted via: DiscPlay 4.0.3
# 
DISCID=810a830b
DTITLE=James Taylor - New Moon Shine
DYEAR=1900
DGENRE=
TTITLE0=Copperline
TTITLE1=Down in the Hole
TTITLE2=(I've Got To) Stop Thinkin''bout that
TTITLE3=Shed a Little Light
TTITLE4=The Frozen Man
TTITLE5=Slap Leather
TTITLE6=Like Everyone She Knows
TTITLE7=One More Go Round
TTITLE8=Everybody Loves to Cha Cha Cha
TTITLE9=Native Son
TTITLE10=Oh BrotherThe Water is Wide
EXTD=
EXTT0=
EXTT1=
EXTT2=
EXTT3=
EXTT4=
EXTT5=
EXTT6=
EXTT7=
EXTT8=
EXTT9=
EXTT10=
PLAYORDER=
